<?xml version="1.0" encoding="utf-8"?>
<svg width="60px" height="60px" viewBox="0 0 60 60" version="1.1" xmlns:xlink="http://www.w3.org/1999/xlink" xmlns="http://www.w3.org/2000/svg">
  <defs>
    <path d="M0 0L60 0L60 60L0 60L0 0Z" id="path_1" />
    <rect width="60" height="60" id="artboard_1" />
    <clipPath id="clip_1">
      <use xlink:href="#artboard_1" clip-rule="evenodd" />
    </clipPath>
    <clipPath id="mask_1">
      <use xlink:href="#path_1" />
    </clipPath>
  </defs>
  <g id="cechy-referencje" clip-path="url(#clip_1)">
    <g id="cecha-referencja" transform="translate(-6.1035156E-05 -1.9073486E-06)">
      <path d="M0 0L60 0L60 60L0 60L0 0Z" id="Background" fill="none" fill-rule="evenodd" stroke="none" />
      <g clip-path="url(#mask_1)">
        <path d="M33.1723 50.4016C32.6996 50.2075 32.1533 50.3624 31.8518 50.7751L27.8573 56.2205L23.3214 39.4518C27.4984 38.9854 31.2747 37.2047 34.2549 34.5459L39.453 52.9696L33.1723 50.4016L33.1723 50.4016ZM14.4419 56.2633L10.4015 50.7751C10.0984 50.364 9.55213 50.2111 9.07943 50.4047L2.80396 52.9873L7.96761 34.5438C11.0459 37.2913 14.9751 39.0981 19.3154 39.491L14.4419 56.2633L14.4419 56.2633ZM21.1123 2.23044C30.7953 2.23044 38.6735 10.1087 38.6735 19.7917C38.6735 29.4751 30.7953 37.3534 21.1123 37.3534C11.4288 37.3534 3.55057 29.4751 3.55057 19.7917C3.55057 10.1087 11.4288 2.23044 21.1123 2.23044M36.058 32.7245C39.068 29.2518 40.9024 24.7372 40.9024 19.7917C40.9024 8.87948 32.0245 0 21.1123 0C10.1996 0 1.32169 8.87948 1.32169 19.7917C1.32169 24.7351 3.15612 29.2482 6.16238 32.7214L0.0418612 54.587C-0.0739649 54.996 0.0549047 55.4363 0.374731 55.7202C0.69247 56.004 1.1443 56.0807 1.53873 55.9174L9.12169 52.7984L13.9838 59.4016C14.1956 59.6901 14.5316 59.8565 14.8822 59.8565C14.9459 59.8565 15.0111 59.8503 15.0763 59.8388C15.4937 59.7637 15.8344 59.4605 15.9518 59.0525L21.3189 40.5866L26.3114 59.0395C26.4226 59.4537 26.7617 59.7652 27.1822 59.845C27.2506 59.8565 27.3189 59.8633 27.3878 59.8633C27.7384 59.8633 28.0739 59.6969 28.2862 59.4083L33.1347 52.7953L40.7245 55.8996C41.1189 56.0593 41.5707 55.9826 41.8885 55.6988C42.2067 55.4155 42.3356 54.9751 42.2198 54.564L36.058 32.7245L36.058 32.7245Z" transform="translate(8.869171 0.06834984)" id="Shape" fill="#FFFFFF" fill-rule="evenodd" stroke="none" />
      </g>
    </g>
  </g>
</svg>