<?xml version="1.0" encoding="utf-8"?>
<svg width="60px" height="60px" viewBox="0 0 60 60" version="1.1" xmlns:xlink="http://www.w3.org/1999/xlink" xmlns="http://www.w3.org/2000/svg">
  <defs>
    <path d="M0 0L60 0L60 60L0 60L0 0Z" id="path_1" />
    <rect width="60" height="60" id="artboard_1" />
    <clipPath id="clip_1">
      <use xlink:href="#artboard_1" clip-rule="evenodd" />
    </clipPath>
    <clipPath id="mask_1">
      <use xlink:href="#path_1" />
    </clipPath>
  </defs>
  <g id="cechy-zadowolenie" clip-path="url(#clip_1)">
    <g id="cecha-zadowolenie">
      <path d="M0 0L60 0L60 60L0 60L0 0Z" id="Background" fill="none" fill-rule="evenodd" stroke="none" />
      <g clip-path="url(#mask_1)">
        <g id="Group">
          <path d="M29.8552 57.3578C14.6901 57.3578 2.35321 45.0204 2.35321 29.8552C2.35321 14.6901 14.6901 2.35156 29.8552 2.35156C45.0204 2.35156 57.3578 14.6901 57.3578 29.8552C57.3578 45.0204 45.0204 57.3578 29.8552 57.3578M29.8552 0C13.3932 0 0 13.3932 0 29.8552C0 46.3178 13.3932 59.7094 29.8552 59.7094C46.3178 59.7094 59.711 46.3178 59.711 29.8552C59.711 13.3932 46.3178 0 29.8552 0" id="Shape" fill="#FFFFFF" fill-rule="evenodd" stroke="none" />
          <path d="M37.7607 0.123084C37.1794 -0.165908 36.4737 0.0713397 36.1853 0.653174C32.9596 7.15024 26.4537 11.1857 19.2069 11.1857C11.9596 11.1857 5.45372 7.15024 2.22859 0.653174C1.94125 0.0713397 1.23611 -0.165908 0.653175 0.123084C0.0713408 0.412075 -0.165908 1.11721 0.123084 1.69905C1.86033 5.19776 4.52675 8.15482 7.83281 10.2482C11.2319 12.4 15.166 13.5372 19.2069 13.5372C23.2473 13.5372 27.1814 12.4 30.5805 10.2482C33.8871 8.15482 36.553 5.19776 38.2908 1.69905C38.5798 1.11721 38.342 0.412075 37.7607 0.123084" transform="translate(10.5448 37.614716)" id="Shape" fill="#FFFFFF" fill-rule="evenodd" stroke="none" />
          <path d="M0.652637 5.37688C1.23392 5.66587 1.93961 5.42862 2.2286 4.84734C2.99374 3.3077 4.53502 2.35101 6.2519 2.35101C7.96878 2.35101 9.51007 3.3077 10.2736 4.84734C10.48 5.26018 10.8961 5.50073 11.3282 5.49908C11.5038 5.49908 11.6827 5.4611 11.8512 5.37688C12.4325 5.08789 12.6697 4.38275 12.3807 3.80147C11.2165 1.45486 8.86823 0 6.2519 0C3.63557 0 1.28567 1.45486 0.123096 3.80147C-0.165894 4.38275 0.0713534 5.08789 0.652638 5.37688" transform="translate(12.879272 16.834127)" id="Shape" fill="#FFFFFF" fill-rule="evenodd" stroke="none" />
          <path d="M0.652643 5.37688C1.23393 5.66587 1.93962 5.42862 2.22861 4.84734C2.99374 3.3077 4.53503 2.35101 6.25191 2.35101C7.96879 2.35101 9.51007 3.3077 10.2736 4.84734C10.48 5.26018 10.8961 5.50073 11.3282 5.49908C11.5038 5.49908 11.6827 5.4611 11.8512 5.37688C12.4325 5.08789 12.6697 4.38275 12.3807 3.80147C11.2165 1.45486 8.86824 0 6.2519 0C3.63558 0 1.28566 1.45486 0.123099 3.80147C-0.165893 4.38275 0.0713544 5.08789 0.652641 5.37688" transform="translate(34.32846 16.834127)" id="Shape" fill="#FFFFFF" fill-rule="evenodd" stroke="none" />
        </g>
      </g>
    </g>
  </g>
</svg>