<?xml version="1.0" encoding="utf-8"?>
<svg width="60px" height="60px" viewBox="0 0 60 60" version="1.1" xmlns:xlink="http://www.w3.org/1999/xlink" xmlns="http://www.w3.org/2000/svg">
  <defs>
    <path d="M0 0L60 0L60 60L0 60L0 0Z" id="path_1" />
    <rect width="60" height="60" id="artboard_1" />
    <clipPath id="clip_1">
      <use xlink:href="#artboard_1" clip-rule="evenodd" />
    </clipPath>
    <clipPath id="mask_1">
      <use xlink:href="#path_1" />
    </clipPath>
  </defs>
  <g id="cechy-dyskusja" clip-path="url(#clip_1)">
    <g id="cecha-dyskusja">
      <path d="M0 0L60 0L60 60L0 60L0 0Z" id="Background" fill="none" fill-rule="evenodd" stroke="none" />
      <g clip-path="url(#mask_1)">
        <g id="Group" transform="translate(0.33132935 1.4719238)">
          <path d="M29.6684 48.986C25.1405 48.986 20.6554 48.018 16.6953 46.1869C16.2071 45.9606 15.6249 46.0929 15.2807 46.5083L9.60571 53.3805L3.52201 32.3792C3.51534 32.3603 3.51033 32.3391 3.5031 32.3202C2.75578 30.1706 2.37544 27.938 2.37544 25.6805C2.37544 12.8308 14.619 2.37549 29.6684 2.37549C44.7183 2.37549 56.9619 12.8308 56.9619 25.6805C56.9619 38.5307 44.7183 48.986 29.6684 48.986M29.6684 2.12115e-06C13.3084 2.12115e-06 0 11.5207 0 25.6804C0 28.1932 0.420371 30.6798 1.24777 33.0708L7.94979 56.2007C8.07156 56.6227 8.41909 56.9441 8.85003 57.0331C8.92954 57.0486 9.00961 57.0575 9.08968 57.0575C9.44055 57.0575 9.77751 56.9024 10.0055 56.6266L16.539 48.7169C20.5965 50.4489 25.116 51.3614 29.6684 51.3614C46.0284 51.3614 59.3373 39.8407 59.3373 25.6804C59.3373 11.5207 46.0284 0 29.6684 0" id="Shape" fill="#FFFFFF" fill-rule="evenodd" stroke="none" />
          <path d="M4.27823 6.18107C3.22842 6.18107 2.37544 5.32754 2.37544 4.27828C2.37544 3.22846 3.22842 2.37549 4.27823 2.37549C5.32749 2.37549 6.18102 3.22846 6.18102 4.27828C6.18102 5.32754 5.32749 6.18107 4.27823 6.18107M4.27822 0C1.91836 0 0 1.91836 0 4.27822C0 6.63752 1.91836 8.55588 4.27822 8.55588C6.63808 8.55588 8.55644 6.63752 8.55644 4.27822C8.55644 1.91836 6.63808 0 4.27822 0" transform="translate(25.313995 21.307861)" id="Shape" fill="#FFFFFF" fill-rule="evenodd" stroke="none" />
          <path d="M4.27823 6.18107C3.22842 6.18107 2.37544 5.32754 2.37544 4.27828C2.37544 3.22846 3.22842 2.37549 4.27823 2.37549C5.32749 2.37549 6.18046 3.22846 6.18046 4.27828C6.18046 5.32754 5.32749 6.18107 4.27823 6.18107M4.27822 0C1.91836 0 0 1.91836 0 4.27822C0 6.63752 1.91836 8.55588 4.27822 8.55588C6.63752 8.55588 8.55588 6.63752 8.55588 4.27822C8.55588 1.91836 6.63752 0 4.27822 0" transform="translate(35.72763 21.307861)" id="Shape" fill="#FFFFFF" fill-rule="evenodd" stroke="none" />
          <path d="M4.27823 6.18107C3.22842 6.18107 2.37544 5.32754 2.37544 4.27828C2.37544 3.22846 3.22842 2.37549 4.27823 2.37549C5.32749 2.37549 6.18102 3.22846 6.18102 4.27828C6.18102 5.32754 5.32749 6.18107 4.27823 6.18107M4.27822 0C1.91836 0 0 1.91836 0 4.27822C0 6.63752 1.91836 8.55588 4.27822 8.55588C6.63808 8.55588 8.55643 6.63752 8.55643 4.27822C8.55643 1.91836 6.63808 0 4.27822 0" transform="translate(15.053284 21.307861)" id="Shape" fill="#FFFFFF" fill-rule="evenodd" stroke="none" />
        </g>
      </g>
    </g>
  </g>
</svg>