<?xml version="1.0" encoding="utf-8"?>
<svg width="32px" height="28px" viewBox="0 0 32 28" version="1.1" xmlns:xlink="http://www.w3.org/1999/xlink" xmlns="http://www.w3.org/2000/svg">
  <defs>
    <path d="M0 0L30.4052 0L30.4052 26.3529L0 26.3529L0 0Z" id="path_1" />
    <clipPath id="mask_1">
      <use xlink:href="#path_1" />
    </clipPath>
  </defs>
  <g id="szkolenie" transform="translate(0.75 0.75)">
    <path d="M0 0L30.4052 0L30.4052 26.3529L0 26.3529L0 0Z" id="Background" fill="none" fill-rule="evenodd" stroke="none" />
    <g clip-path="url(#mask_1)">
      <g id="Group" transform="translate(0.67077637 0.6179199)">
        <path d="M26.8281 2.74153C26.8281 1.22706 25.4956 0 23.8511 0L2.97702 0C1.33246 0 0 1.22706 0 2.74153L0 21.9644C0 23.4788 1.33246 24.7059 2.97702 24.7059L23.8511 24.7059C25.4956 24.7059 26.8281 23.4788 26.8281 21.9644L26.8281 12.3529" id="Shape" fill="none" fill-rule="evenodd" stroke="#E67E22" stroke-width="1.5" stroke-linecap="round" stroke-linejoin="round" />
        <path d="M20.1211 0L2.03715 0C0.912155 0 0 0.84 0 1.876L0 18.5294" transform="translate(2.6827393 2.4707031)" id="Shape" fill="none" fill-rule="evenodd" stroke="#E67E22" stroke-width="1.5" stroke-linecap="round" stroke-linejoin="round" />
        <path d="M20.7918 0L5.36562 12.9706L0 6.17647" transform="translate(8.048462 5.558838)" id="Shape" fill="none" fill-rule="evenodd" stroke="#E67E22" stroke-width="1.5" stroke-linecap="round" stroke-linejoin="round" />
      </g>
    </g>
  </g>
</svg>