<?xml version="1.0" encoding="utf-8"?>
<svg width="16px" height="16px" viewBox="0 0 16 16" version="1.1" xmlns:xlink="http://www.w3.org/1999/xlink" xmlns="http://www.w3.org/2000/svg">
  <defs>
    <path d="M0 0L16 0L16 16L0 16L0 0Z" id="path_1" />
    <clipPath id="mask_1">
      <use xlink:href="#path_1" />
    </clipPath>
  </defs>
  <g id="facebook-f">
    <path d="M0 0L16 0L16 16L0 16L0 0Z" id="Background" fill="none" fill-rule="evenodd" stroke="none" />
    <g clip-path="url(#mask_1)">
      <path d="M5.67333 2.21335L6.92667 2.21335L6.92667 0.0933521C6.31984 0.0302514 5.71012 -0.000903209 5.10003 1.99477e-05C3.28667 1.86761e-05 2.04667 1.10669 2.04667 3.13335L2.04667 4.88002L0 4.88002L0 7.25335L2.04667 7.25335L2.04667 13.3334L4.5 13.3334L4.5 7.25335L6.54 7.25335L6.84667 4.88002L4.5 4.88002L4.5 3.36669C4.5 2.66669 4.68667 2.21335 5.67333 2.21335L5.67333 2.21335Z" transform="translate(4.406616 1.333313)" id="Shape" fill="#FFFFFF" fill-rule="evenodd" stroke="none" />
    </g>
  </g>
</svg>