<?xml version="1.0" encoding="utf-8"?>
<svg width="16px" height="16px" viewBox="0 0 16 16" version="1.1" xmlns:xlink="http://www.w3.org/1999/xlink" xmlns="http://www.w3.org/2000/svg">
  <defs>
    <path d="M0 0L16 0L16 16L0 16L0 0Z" id="path_1" />
    <clipPath id="mask_1">
      <use xlink:href="#path_1" />
    </clipPath>
  </defs>
  <g id="instagram">
    <path d="M0 0L16 0L16 16L0 16L0 0Z" id="Background" fill="none" fill-rule="evenodd" stroke="none" />
    <g clip-path="url(#mask_1)">
      <path d="M10.2266 2.30666L10.2266 2.30666C9.78481 2.30666 9.42664 2.66484 9.42664 3.10666C9.42664 3.54849 9.78481 3.90666 10.2266 3.90666C10.6685 3.90666 11.0266 3.54849 11.0266 3.10667C11.0266 2.66483 10.6685 2.30666 10.2266 2.30666L10.2266 2.30666ZM13.2933 3.92C13.2804 3.36688 13.1768 2.81961 12.9867 2.30001C12.8172 1.85543 12.5533 1.45285 12.2133 1.12C11.8832 0.778284 11.4797 0.516117 11.0333 0.353333C10.5151 0.157441 9.96723 0.0514733 9.41333 0.04C8.70667 0 8.48 0 6.66667 0C4.85333 0 4.62667 0 3.92 0.04C3.3661 0.0514733 2.81823 0.157441 2.3 0.353334C1.85445 0.517766 1.45129 0.779708 1.12 1.12C0.778284 1.45012 0.516118 1.85363 0.353333 2.3C0.15744 2.81823 0.051473 3.3661 0.04 3.92C0 4.62667 0 4.85333 0 6.66667C0 8.48 0 8.70667 0.04 9.41333C0.051473 9.96723 0.15744 10.5151 0.353333 11.0333C0.516117 11.4797 0.778284 11.8832 1.12 12.2133C1.45129 12.5536 1.85445 12.8156 2.3 12.98C2.81823 13.1759 3.3661 13.2819 3.92 13.2933C4.62667 13.3333 4.85333 13.3333 6.66667 13.3333C8.48 13.3333 8.70667 13.3333 9.41333 13.2933C9.96723 13.2819 10.5151 13.1759 11.0333 12.98C11.4797 12.8172 11.8832 12.555 12.2133 12.2133C12.5548 11.8817 12.8189 11.4788 12.9867 11.0333C13.1768 10.5137 13.2804 9.96647 13.2933 9.41334C13.2933 8.70667 13.3333 8.48 13.3333 6.66667C13.3333 4.85333 13.3333 4.62667 13.2933 3.92L13.2933 3.92ZM12.0934 9.33334C12.0885 9.75655 12.0119 10.1758 11.8667 10.5734C11.7603 10.8635 11.5893 11.1256 11.3667 11.34C11.1505 11.5603 10.8889 11.731 10.6001 11.84C10.2025 11.9852 9.78325 12.0618 9.36007 12.0667C8.69341 12.1 8.44674 12.1067 6.69341 12.1067C4.94007 12.1067 4.69341 12.1067 4.02674 12.0667C3.58733 12.0749 3.1498 12.0072 2.73341 11.8667C2.45726 11.7521 2.20764 11.5819 2.00007 11.3667C1.7788 11.1525 1.60997 10.8901 1.50674 10.6C1.34398 10.1968 1.2537 9.76797 1.24007 9.33334C1.24007 8.66667 1.20007 8.42001 1.20007 6.66667C1.20007 4.91334 1.20007 4.66667 1.24007 4C1.24306 3.56738 1.32204 3.13864 1.47341 2.73334C1.59077 2.45195 1.77091 2.20111 2.00007 2C2.20262 1.77078 2.45293 1.58874 2.73341 1.46667C3.13977 1.32003 3.56807 1.24339 4.00007 1.24C4.66674 1.24 4.91341 1.2 6.66674 1.2C8.42007 1.2 8.66674 1.2 9.33341 1.24C9.75659 1.24486 10.1759 1.3215 10.5734 1.46667C10.8764 1.57911 11.1483 1.7619 11.3667 2C11.5852 2.20479 11.7559 2.45516 11.8667 2.73334C12.0149 3.13929 12.0916 3.56786 12.0934 4C12.1267 4.66667 12.1334 4.91334 12.1334 6.66667C12.1334 8.42001 12.1267 8.66667 12.0934 9.33334L12.0934 9.33334ZM6.66663 3.24667C4.77869 3.25034 3.25085 4.78315 3.2533 6.6711C3.25575 8.55904 4.78756 10.0879 6.6755 10.0867C8.56345 10.0854 10.0933 8.55462 10.0933 6.66668C10.095 5.75779 9.73434 4.88586 9.09111 4.24393C8.44788 3.60201 7.57522 3.24307 6.66648 3.24667L6.66663 3.24667ZM6.66666 8.88667C5.44058 8.88667 4.44666 7.89274 4.44666 6.66667C4.44665 5.4406 5.44058 4.44667 6.66665 4.44667C7.89272 4.44666 8.88665 5.44058 8.88665 6.66666C8.88665 7.89274 7.89272 8.88667 6.66664 8.88667L6.66666 8.88667Z" transform="translate(1.333374 1.3333359)" id="Shape" fill="#FFFFFF" fill-rule="evenodd" stroke="none" />
    </g>
  </g>
</svg>