<?xml version="1.0" encoding="utf-8"?>
<svg width="16px" height="16px" viewBox="0 0 16 16" version="1.1" xmlns:xlink="http://www.w3.org/1999/xlink" xmlns="http://www.w3.org/2000/svg">
  <defs>
    <path d="M0 0L16 0L16 16L0 16L0 0Z" id="path_1" />
    <clipPath id="mask_1">
      <use xlink:href="#path_1" />
    </clipPath>
  </defs>
  <g id="twitter">
    <path d="M0 0L16 0L16 16L0 16L0 0Z" id="Background" fill="none" fill-rule="evenodd" stroke="none" />
    <g clip-path="url(#mask_1)">
      <path d="M13.3333 1.3005C12.8322 1.5179 12.3023 1.66161 11.76 1.72717C12.3321 1.38538 12.7608 0.847689 12.9667 0.213833C12.429 0.533875 11.8405 0.759364 11.2267 0.8805C10.3828 -0.0346464 9.02714 -0.263997 7.92919 0.322624C6.83124 0.909245 6.26834 2.16364 6.56 3.37383C4.36157 3.26264 2.31381 2.22301 0.926665 0.513833C0.68609 0.933946 0.559678 1.40972 0.559999 1.89383C0.558243 2.80691 1.0137 3.66031 1.77328 4.16713C1.33862 4.1553 0.913242 4.03868 0.533332 3.82717L0.533332 3.8605C0.540043 5.15914 1.45961 6.27378 2.73332 6.52716C2.49549 6.59954 2.24858 6.6377 2 6.6405C1.82792 6.63849 1.65628 6.62289 1.48666 6.59383C1.84731 7.7046 2.87237 8.46469 4.04 8.48717C3.07813 9.24401 1.89059 9.65707 0.666666 9.6605C0.443823 9.66123 0.221157 9.64787 0 9.6205C1.24962 10.4273 2.70587 10.8556 4.19333 10.8538C6.26684 10.8754 8.26198 10.0626 9.73013 8.59817C11.1983 7.13378 12.0162 5.14073 12 3.06717C12 2.95383 12 2.83383 12 2.71383C12.5231 2.32371 12.9743 1.84545 13.3333 1.3005L13.3333 1.3005Z" transform="translate(1.333374 2.5661697)" id="Shape" fill="#FFFFFF" fill-rule="evenodd" stroke="none" />
    </g>
  </g>
</svg>